<?xml version="1.0" encoding="utf-8"?>
<!-- Generator: Adobe Illustrator 25.2.1, SVG Export Plug-In . SVG Version: 6.00 Build 0)  -->
<svg version="1.1" id="Layer_1" xmlns="http://www.w3.org/2000/svg" xmlns:xlink="http://www.w3.org/1999/xlink" x="0px" y="0px"
	 viewBox="0 0 792 612" style="enable-background:new 0 0 792 612;" xml:space="preserve">
<style type="text/css">
	.st0{fill:#010101;}
</style>
<path class="st0" d="M572.06,179.26c0,0-1.8,1.45-11.54,1.45c-9.61,0-36.04,0-36.04,0v1.68l0.97-0.12c0.84,0,1.56,0.24,2.28,0.48
	c0.84,0.36,1.68,0.84,2.28,1.56c0.48,0.36,0.72,0.85,0.96,1.45c0.49,0.48,0.73,1.2,0.85,1.8c0.12,0.72,0.12,1.56,0.12,2.28
	c0,0.73,0,1.45,0,2.17c0,1.44,0,2.88,0,4.33c0,1.8,0,3.6,0,5.29c0,1.92,0,3.97,0,5.89c0,2.16,0,4.33,0,6.49c0,2.17,0,4.45,0,6.61
	c0,2.17,0,4.33,0,6.49c0,1.92,0,3.97,0,6.01c0,1.8,0,3.61,0,5.41c0,1.44,0,2.89,0,4.33c0,1.08,0,2.16,0,3.12
	c0,0.73,0,1.21-0.12,1.93c-0.12,0.96-0.61,2.16-1.21,3c-0.84,1.33-2.4,2.05-3.96,2.29c-0.24,0.12-2.17,0.24-2.17,0.24v1.56h47.82
	c0,0,6.37-15.62,6.61-18.62h-1.44c0,0-0.6,1.56-0.6,1.68c-0.36,0.6-0.6,1.2-0.84,1.8c-0.48,0.96-1.08,2.05-1.8,3.01
	c-1.33,2.16-3.01,3.85-5.05,5.17c-3.13,1.92-6.61,2.64-10.1,2.64c-1.32,0-2.52,0-3.73,0c-2.28,0-4.56,0-6.73,0
	c-1.68,0-3.36,0-5.04,0c-0.25,0-0.61,0-0.85,0v-31.6h18.14c0,0,4.45,0.12,4.69,7.21h1.2v-18.99h-1.92c0,0.6,0,1.2,0,1.68
	c0,0.96,0.12,1.93-0.24,2.77c-0.24,0.24-0.24,0.36-0.48,0.6c-0.36,0.72-0.84,1.2-1.44,1.68c-1.08,0.84-2.53,1.2-3.97,1.2
	c-4.81,0.12-16.1,0-16.1,0v-30.77h21.75c0,0,7.09-0.12,6.97,9.98h1.56v-15.14H572.06z"/>
<polygon class="st0" points="167.76,410.72 368.89,407.71 386.79,393.17 387.4,394.38 367.81,413.85 "/>
<polygon class="st0" points="616.16,410.72 414.91,407.71 397.24,393.17 396.52,394.38 416.11,413.85 "/>
<path class="st0" d="M392.44,417.45c0,0,11.53,9.38,12.01,9.62c0.6,0.24,2.53,0.24,0-2.52c-2.52-2.77-10.33-10.7-10.33-10.7
	l-0.12-8.05l17.3,15.02c0,0,2.64,1.2-0.49-2.53c-3-3.6-16.82-17.54-16.82-17.54l-0.36-0.48l-0.12-16.7c-0.12-1.21-2.05-1.69-2.29,0
	l-0.48,17.54c0,0-18.62,18.27-18.26,19.59c0.36,1.2,4.93-3.25,6.97-5.17c2.17-1.93,11.41-9.61,11.41-9.61v7.93
	c0,0-11.29,12.26-11.53,12.62c-0.24,0.36-0.72,2.16,2.89-0.84C385.95,422.62,392.44,417.45,392.44,417.45z"/>
<path class="st0" d="M170.64,276.12c0,0,29.56,0,34.01,0c4.45,0,8.77,1.45,8.77,1.45c20.18,8.65,15.01,29.68,0,34.85
	c31.72,6.49,25.95,38.45,6.37,46.03c-21.75,7.93-26.44-11.06-26.44-11.06c-1.44-14.18,3.13-19.94,8.78-24.03
	c-8.78,14.3-5.41,30.04,3.72,31.96c12.74,0.72,18.98-9.49,17.54-22.23c-2.64-17.43-18.86-17.55-18.86-17.55h-14.53
	c0,0,0,29.08,0,34.73c0,5.53,6.01,9.13,6.01,9.13v0.72h-24.87v-1.44c4.68-0.24,6.97-3.13,7.21-8.05c0,0,0-62.73,0-67.78
	c0-5.05-7.69-5.29-7.69-5.29V276.12z M189.99,279.49c0,5.89,0,11.9,0,17.79c0,2.88,0,5.77,0,8.77c0,1.45-0.12,3.01,0,4.45
	c0.12,0.72,0,0.72,0.72,0.84c0.6,0.12,1.44,0.12,2.16,0.12c1.92,0.12,3.85,0.24,5.77,0.24c2.65,0,5.41-0.24,7.81-1.44
	c2.65-1.2,4.57-3.61,5.89-6.25c2.05-3.97,2.89-8.54,1.81-12.86c-0.96-4.32-3.97-8.17-8.06-9.98
	C201.16,278.89,195.52,280.09,189.99,279.49z"/>
<path class="st0" d="M292.36,350.15c-1.57,2.16-3.73,3.97-6.13,5.17c-2.53,1.2-5.53,1.92-9.26,1.92h-14.65v-62.73
	c0-1.8,0.72-3.37,2.04-4.69c1.32-1.32,2.89-2.04,4.69-2.04c0.84,0,1.32,0,1.44,0v-0.96h-8.17h-0.36h-9.13h-0.36h-8.17v0.96h1.32
	c1.92,0,3.49,0.72,4.81,2.04c1.2,1.32,1.92,2.89,2.04,4.69v58.65c-0.12,1.8-0.84,3.36-2.04,4.69c-1.32,1.32-2.89,2.04-4.81,2.04
	h-1.32v0.96h8.17h0.36h9.13h0.36h10.82h18.38h0.36l5.65-18.63h-1.09C295.36,345.23,293.92,347.87,292.36,350.15z"/>
<path class="st0" d="M533.26,347.03c-2.77,4.09-6.13,7.1-10.22,9.02c-4.09,1.81-8.65,2.77-13.82,2.77
	c-5.77-0.12-10.69-1.69-15.02-4.69c-4.32-2.89-7.57-6.97-9.97-12.14c-2.29-5.29-3.49-11.42-3.49-18.38c0-6.98,1.2-13.1,3.61-18.39
	c2.4-5.17,5.77-9.14,10.09-12.02c4.45-2.89,9.61-4.33,15.74-4.33s11.41,1.56,16.1,4.69c4.68,3.24,7.81,8.05,9.49,14.54h0.96
	l-1.44-15.98c-3.12-1.93-6.73-3.61-11.05-4.81c-4.32-1.45-9.13-2.05-14.54-2.05c-8.17,0-15.26,1.57-21.27,4.81
	c-5.89,3.25-10.45,7.7-13.82,13.34c-3.24,5.77-4.93,12.49-4.93,20.31c0,7.93,1.69,14.78,4.93,20.55c3.37,5.65,8.05,10.1,14.05,13.21
	c5.89,3.25,12.74,4.81,20.55,4.93c5.05,0,9.37-0.72,13.22-2.04c3.73-1.32,7.09-3.13,9.73-5.53c2.76-2.17,5.04-4.81,6.73-7.69
	l0.6-17.18h-0.96C537.7,337.17,535.9,342.71,533.26,347.03z"/>
<path class="st0" d="M379.58,359.89c-1.68,0-3.36-0.48-5.05-1.56c-1.44-0.85-2.64-2.29-3.72-4.21l-29.92-68.99h-0.96
	c0,0.6-0.12,1.57-0.6,2.77c-0.37,1.32-0.85,2.64-1.45,3.97c-0.48,1.32-0.96,2.52-1.44,3.36c-0.48,0.96-0.72,1.56-0.84,1.69
	l-13.1,30.65c-6.37-0.49-12.14,2.04-15.5,8.77l0.48,0.12c4.21-4.33,9.13-4.93,13.09-4.45l-9.37,22.12
	c-1.08,1.92-2.29,3.36-3.73,4.21c-1.8,1.08-3.48,1.56-5.05,1.56h-0.96v0.96h21.75v-0.96h-0.96c-0.96,0-1.69-0.24-2.53-0.84
	s-1.44-1.33-1.8-2.29c-0.24-0.72-0.24-1.68,0-2.64l5.53-13.82l1.2-3.37l0.12-0.12l1.32-3.24c1.45,0.6,2.41,1.08,2.41,1.08
	c12.25,3.97,19.82,1.68,22.83,0.24l0.72,1.92l6.25,16.35c0.84,2.16,0.72,3.72-0.36,4.93c-1.09,1.2-2.29,1.8-3.73,1.8h-0.96v0.96
	h27.15v-0.96H379.58z M332.24,330.32c-1.44-0.72-2.76-1.2-4.2-1.68l10.69-26.68l10.1,26.2l1.56,4.33
	C346.3,334.41,339.34,333.33,332.24,330.32z"/>
<path class="st0" d="M620.6,359.89c-1.56,0-3.24-0.48-5.04-1.56c-1.45-0.85-2.65-2.29-3.73-4.21l-29.92-68.99h-0.96
	c0,0.6-0.12,1.57-0.6,2.77c-0.48,1.32-0.97,2.64-1.45,3.97c-0.48,1.32-0.96,2.52-1.44,3.36c-0.48,0.96-0.72,1.56-0.84,1.69
	l-13.1,30.65c-6.37-0.49-12.26,2.04-15.38,8.77l0.24,0.12c4.33-4.33,9.26-4.93,13.22-4.45l-9.38,22.12
	c-1.08,1.92-2.4,3.36-3.85,4.21c-1.68,1.08-3.36,1.56-5.05,1.56h-0.96v0.96h21.75v-0.96h-0.96c-0.84,0-1.68-0.24-2.41-0.84
	c-0.84-0.6-1.44-1.33-1.8-2.29c-0.36-0.72-0.36-1.68-0.12-2.64l5.53-13.82l1.44-3.37v-0.12l1.32-3.24c1.45,0.6,2.29,1.08,2.29,1.08
	c12.38,3.97,19.82,1.68,22.95,0.24l0.72,1.92l6.25,16.35h0.12c0.72,2.16,0.6,3.72-0.48,4.93c-1.08,1.2-2.29,1.8-3.73,1.8h-0.96v0.96
	h27.15v-0.96H620.6z M573.26,330.32c-1.44-0.72-2.76-1.2-4.2-1.68l10.7-26.68l9.97,26.2l1.68,4.33
	C587.32,334.41,580.36,333.33,573.26,330.32z"/>
<path class="st0" d="M384.39,360.37v-1.2c0,0,8.05-0.24,8.05-6.13c0-5.89,0-58.05,0-58.05c-10.57-11.06-20.3-23.92-40.85-15.14
	c3.84-6.97,19.58-9.01,29.92-4.57c0,0,5.64,0.96,17.41,12.98c11.65,12.01,49.39,52.88,49.39,52.88v-47.47
	c-0.36-3.25-2.65-5.53-7.93-6.01v-1.45h20.43v1.81c-2.89,0.24-6.13-0.24-7.7,5.77v67.78h-0.72l-55.27-59.97l0.36,51.44
	c0,0,0.36,6.37,7.69,5.89v1.44H384.39z"/>
<path class="st0" d="M213.18,169.28l-2.05,19.35h1.32c-0.12,0,0.97-4.09,0.97-4.33c1.08-3,2.88-5.65,5.65-7.09
	c3-1.68,6.61-1.32,9.97-1.32c3.25,0,6.61,0,9.85,0c0.12,0,3.6,0,3.6,0v68.86c-0.24,5.17-2.04,8.9-7.69,9.02v1.08h27.28v-1.2
	c0,0-8.06,0.24-8.06-9.14V175.9c0.84,0,1.93,0,3.01,0c2.16,0,4.33,0,6.49,0s4.33,0,6.49,0c1.68,0,3.25,0,4.81,0.36
	c1.08,0.24,2.04,0.72,3,1.2c1.93,1.2,3.37,2.89,4.33,4.93c0.96,2.04,1.44,4.33,1.68,6.73h1.45l-1.81-19.35c0,0-4.08,2.17-9.01,2.17
	c-1.45,0-2.89,0-4.21,0c-2.64,0-5.17,0-7.69,0c-3.37,0-6.49,0-9.73,0c-3.6,0-7.09,0-10.57,0c-3.24,0-6.49,0-9.73,0
	c-2.65,0-5.29,0-7.82,0c-3.12,0-5.89,0.12-8.77-1.2c-0.48-0.24-0.84-0.36-1.32-0.6C214.38,170.01,213.18,169.4,213.18,169.28z"/>
<path class="st0" d="M304.61,186.11c-15.14,4.93-27.52,29.93-12.62,54.8c0.84,1.33,1.92,2.65,3.12,3.85c1.2,1.2,2.53,2.41,3.85,3.37
	c1.44,1.2,3,2.16,4.57,3.13c1.56,0.84,3.24,1.68,4.92,2.4c1.69,0.72,3.49,1.32,5.17,1.92c1.81,0.48,3.61,0.97,5.29,1.21
	c1.8,0.36,3.49,0.48,5.29,0.6c1.68,0.12,3.25,0.12,4.93-0.12c1.44-0.12,2.88-0.48,4.33-0.84c1.44-0.37,2.64-0.97,3.84-1.69
	c0.6-0.36,1.2-0.72,1.68-1.2c0.49-0.36,0.97-0.72,1.21-1.2c0.24-0.36,0.24-0.96-0.12-1.21c-0.6-0.36-1.57-0.12-2.05,0.13
	c-3,1.2-6.25,1.8-9.37,1.92c-3.13,0-6.25-0.6-9.26-1.68c-3-1.21-5.89-2.89-8.29-4.93c-2.89-2.29-5.29-5.17-7.21-8.17
	c-2.29-3.61-4.09-7.45-5.29-11.3c-0.48-1.69-0.96-3.37-1.44-5.05c-0.49-2.53-0.97-5.17-0.97-7.93c0-2.52,0-4.93,0.24-7.33
	c0.48-4.33,1.45-8.65,3.25-12.62c1.2-2.52,2.88-5.05,4.93-6.97C304.61,187.19,305.81,185.75,304.61,186.11z"/>
<path class="st0" d="M344.26,245.24c1.93-23.91-7.21-45.55-32.92-63.45c50.7-15.38,74.61,44.11,37.85,67.9
	c18.62-29.57-0.84-68.26-30.28-66.46C342.46,197.29,363.25,228.05,344.26,245.24z"/>
<path class="st0" d="M375.38,254.85v-1.56c4.08,0.12,6.49-1.8,7.09-6.13v-59.61c-0.6-2.89-2.05-5.17-7.09-5.29v-1.2h35.2
	c25.36,3.96,24.63,34.61,0.36,39.9c5.05,1.92,11.77,9.13,20.91,23.55c16.22,22,29.08,23.44,40.73,17.91
	c-6.01,5.53-18.02,11.89-37.97-1.69c0,0-12.73-11.42-19.7-23.67c-6.97-12.26-12.86-16.71-19.7-17.31v-1.56
	c16.7,0.84,22.83-6.37,22.59-18.51c-0.61-7.93-4.33-13.58-13.58-15.26H392.8l0.36,63.22c0.49,3.48,3.13,5.29,7.69,5.77v1.44H375.38z
	"/>
<path class="st0" d="M450.47,254.85v-1.56c4.09,0.12,6.49-1.8,6.97-6.13v-59.61c-0.48-2.89-2.04-5.17-6.97-5.29v-1.2h35.2
	c25.23,3.96,24.63,34.61,0.36,39.9c5.05,1.92,11.78,9.13,20.78,23.55c16.22,22,29.08,23.44,40.85,17.91
	c-6.01,5.53-18.14,11.89-38.08-1.69c0,0-12.74-11.42-19.7-23.67c-6.97-12.26-12.74-16.71-19.71-17.31v-1.56
	c16.7,0.84,22.95-6.37,22.59-18.51c-0.48-7.93-4.33-13.58-13.45-15.26h-11.42l0.24,63.22c0.48,3.48,3.25,5.29,7.81,5.77v1.44H450.47
	z"/>
<path d="M327.68,129.63l0.84-1.45c-1.81,0.48-3.61,0.72-5.53,0.72c-2.17,0-3.97-0.36-5.53-1.08c-1.44-0.72-2.65-1.68-3.49-2.88
	c-0.72-1.21-1.2-2.53-1.2-4.09c0-2.29,0.96-4.45,2.77-6.49c1.8-2.17,4.44-3.85,7.69-5.05c3.36-1.33,7.09-1.93,11.18-1.93v0.36
	c-3.85,0.12-7.34,0.72-10.58,1.93c-3.13,1.2-5.65,2.88-7.45,4.81c-1.69,2.04-2.65,4.2-2.65,6.49c0,2.28,0.84,3.97,2.53,5.17
	c1.68,1.32,4.08,1.92,7.21,2.04c1.68,0,3.6-0.24,5.77-0.84c2.04-2.88,4.33-5.65,6.85-8.54c2.4-2.88,5.29-5.41,8.41-7.81
	c3.25-2.41,6.13-3.61,8.77-3.61c1.68,0,2.52,0.72,2.52,2.05c0,1.08-0.6,2.4-1.68,3.96c-1.2,1.57-2.76,3.25-4.81,4.93
	c-2.04,1.69-4.57,3.37-7.45,4.93c-2.89,1.57-6.01,2.77-9.38,3.85l-0.6,0.72c-1.92,2.77-3.24,4.45-3.84,5.29
	c-0.6,0.96-1.57,1.93-2.65,3.13c-1.2,1.2-2.52,2.28-4.2,3.49c-1.57,1.08-3.49,2.16-5.53,3.12c2.64,0.96,5.4,1.44,8.29,1.44
	c1.44,0,2.76-0.24,3.97-0.72c1.2-0.36,2.52-1.2,3.96-2.4c1.57-1.2,3.97-3.25,7.21-6.13v0.48c-2.28,2.16-4.08,3.84-5.52,4.93
	c-1.45,1.2-2.53,2.04-3.61,2.64c-0.96,0.6-1.92,1.08-2.89,1.32c-0.96,0.25-2.04,0.37-3.12,0.37c-2.52,0-5.53-0.49-8.89-1.57
	c-1.56,0.6-3,0.96-4.44,1.2c-1.32,0.25-2.89,0.37-4.45,0.37c-3.73,0-5.53-0.73-5.53-2.05c0-1.32,1.68-2.04,4.93-2.04
	c1.2,0,2.4,0.12,3.61,0.36c1.2,0.12,2.64,0.6,4.32,1.08l1.32,0.48c2.65-1.44,4.93-3.12,6.86-5.05
	C323.6,135.64,325.63,132.99,327.68,129.63z M313.98,142.85c-1.56-0.48-3.12-0.84-4.8-1.2c-1.57-0.36-2.89-0.48-3.97-0.48
	c-1.2,0-2.17,0.12-2.89,0.48c-0.6,0.24-0.96,0.72-0.96,1.08c0,1.08,1.56,1.56,4.69,1.56C308.93,144.29,311.58,143.81,313.98,142.85z
	 M332.72,126.5c3.49-1.2,6.73-2.53,9.49-4.21c2.88-1.68,5.17-3.37,7.09-4.93c1.8-1.68,3.13-3.12,4.21-4.57
	c0.96-1.44,1.44-2.4,1.44-3.12c0-0.48-0.12-0.97-0.48-1.33c-0.24-0.36-0.6-0.6-1.2-0.6c-2.41,0.24-4.93,1.33-7.69,3.37
	c-2.65,2.04-5.17,4.45-7.46,7.33C335.85,121.34,334.05,124.1,332.72,126.5z"/>
<path d="M356.51,135.64l-1.68,1.44c-2.52,2.16-4.45,3.73-5.77,4.57c-1.2,0.96-2.28,1.32-3.24,1.32c-0.73,0-0.97-0.36-0.97-0.96
	c0-0.84,0.24-1.92,0.85-3.25c-3.13,2.89-5.41,4.21-6.86,4.21c-0.72,0-1.2-0.24-1.68-0.72c-0.36-0.48-0.6-1.2-0.6-2.28
	c0-1.09,0.36-2.17,0.96-3.25c0.72-1.08,1.56-2.04,2.65-2.89c1.08-0.72,2.4-1.44,3.72-1.92c1.33-0.48,2.65-0.72,3.97-0.72
	c0.6,0,1.08,0.12,1.32,0.36c0.36,0.24,0.48,0.6,0.48,1.08c0,0.12,0,0.24,0,0.36s0,0.24-0.12,0.36c0,0.24,0,0.36,0,0.48l2.05-2.4
	l2.76-0.24l-0.84,1.08c-0.72,0.84-1.32,1.44-1.68,2.04c-0.48,0.49-0.85,0.97-1.21,1.33c-3.36,3.6-5.04,5.77-5.04,6.49
	c0,0.24,0.12,0.48,0.48,0.48c0.36,0,0.96-0.24,1.8-0.72c0.84-0.6,1.8-1.2,2.76-2.04c1.09-0.73,2.29-1.69,3.61-2.77
	c1.32-1.08,2.04-1.8,2.28-1.92V135.64z M347.86,131.67c-1.2,0-2.64,0.6-4.33,1.92c-1.56,1.33-3,2.77-4.2,4.33
	c-1.09,1.69-1.69,2.77-1.69,3.49c0,0.36,0,0.6,0.24,0.84c0.24,0.24,0.48,0.36,0.84,0.36c0.97,0,2.17-0.6,3.85-1.92
	c1.68-1.2,3.25-2.65,4.57-4.21c1.32-1.56,2.04-2.77,2.04-3.73C349.18,132.03,348.7,131.67,347.86,131.67z"/>
<path d="M379.1,126.5c-3.84,0.24-6.49-0.36-8.05-1.68c-1.56-1.33-2.41-3.01-2.41-5.17c0-1.09,0.36-2.29,1.09-3.73
	c0.72-1.44,1.92-2.77,3.6-4.09c1.68-1.2,4.09-2.28,7.09-3.25c3.13-0.84,6.86-1.2,11.42-1.2v0.36c-4.69,0-8.65,0.48-11.78,1.45
	c-3.12,0.96-5.41,2.04-6.97,3.36c-1.44,1.2-2.52,2.53-3.12,3.85c-0.48,1.2-0.85,2.4-0.85,3.37c0,2.04,0.85,3.72,2.41,4.93
	c1.68,1.2,4.33,1.68,7.93,1.44c1.81-1.93,3.97-3.97,6.49-6.25c2.53-2.17,5.17-4.21,7.93-6.13c2.76-1.92,5.41-3.48,7.93-4.68
	c2.52-1.09,4.69-1.69,6.61-1.69c1.68,0,2.52,0.72,2.52,2.29c0,1.68-1.32,3.6-3.96,5.77c-2.65,2.16-6.13,4.21-10.45,6.01
	c-4.33,1.92-8.89,3.37-13.7,4.45c-2.17,2.28-3.85,4.33-5.05,6.13c-1.32,1.68-2.28,3.13-2.89,4.57c-0.6,1.32-0.84,2.52-0.84,3.61
	c0,1.08,0.48,2.04,1.45,2.88c1.08,0.84,2.4,1.2,3.96,1.2c2.29,0,4.45-0.6,6.73-1.68c2.29-1.2,4.21-2.64,5.65-4.33
	c1.45-1.8,2.29-3.36,2.29-4.81c0-1.2-0.36-2.04-1.09-2.64c-0.6-0.6-1.56-0.84-2.88-0.84c-1.56,0-3.61,0.72-5.89,2.16
	c-2.16,1.56-4.45,4.33-6.61,8.3l-0.48-0.24c1.92-3.85,4.09-6.49,6.49-8.17c2.28-1.68,4.45-2.52,6.61-2.52
	c1.44,0,2.52,0.36,3.25,0.96c0.72,0.72,1.08,1.68,1.08,2.88c0,1.33-0.48,2.53-1.32,3.85c-0.97,1.32-2.17,2.65-3.61,3.73
	c-1.56,1.2-3.25,2.16-4.93,2.76c-1.8,0.72-3.48,1.09-5.17,1.09c-2.04,0-3.72-0.49-4.93-1.57c-1.2-1.08-1.8-2.64-1.8-4.69
	c0-1.92,0.48-3.72,1.32-5.53C375.13,131.31,376.7,129.14,379.1,126.5z M383.31,125.42c3.48-0.84,6.97-1.93,10.33-3.37
	c3.48-1.32,6.37-2.76,8.89-4.21c2.52-1.44,4.57-2.88,5.89-4.33c1.32-1.44,2.04-2.76,2.04-3.96c0-1.09-0.72-1.81-2.04-1.81
	c-2.16,0-4.81,0.96-7.81,2.77c-2.89,1.8-5.89,3.97-8.9,6.61C388.72,119.77,385.95,122.54,383.31,125.42z"/>
<path d="M396.77,136.36v-0.6c1.44-1.32,3.37-2.77,6.01-4.33h2.77l-7.34,8.3c-1.2,1.44-1.8,2.28-1.8,2.4c0,0.24,0.12,0.36,0.6,0.36
	c1.2,0,3.13-1.08,5.77-3.13c2.77-2.16,5.77-4.8,9.14-7.93h2.52l-7.57,8.77c-0.12,0-0.24,0.24-0.6,0.6c-0.24,0.24-0.48,0.48-0.6,0.84
	c-0.12,0.24-0.24,0.36-0.12,0.6c0,0.24,0.12,0.36,0.48,0.36c0.84,0,2.28-0.72,4.56-2.16c2.17-1.45,4.33-3.25,6.49-5.41v0.48
	c-2.16,2.16-4.32,3.97-6.49,5.41c-2.16,1.44-3.72,2.04-4.68,2.04c-0.73,0-1.09-0.36-1.09-1.08s0.24-1.56,0.97-2.77
	c0.6-1.08,1.68-2.4,3-4.08l0.72-0.73l-1.2,1.09c-2.64,2.28-4.93,4.21-6.85,5.53c-1.92,1.44-3.37,2.04-4.45,2.04
	c-0.84,0-1.2-0.36-1.2-1.32c0-0.6,0.12-1.32,0.48-2.04c0.36-0.73,0.84-1.45,1.44-2.29c0.6-0.72,1.2-1.56,1.93-2.28
	c0.6-0.73,1.32-1.57,2.04-2.29l-1.68,0.96C398.57,134.8,397.48,135.76,396.77,136.36z"/>
<path d="M416.23,136.36v-0.6c1.69-1.45,3.01-2.65,4.09-3.37c1.08-0.84,2.04-1.2,2.88-1.2c0.73,0,1.09,0.48,1.09,1.44
	c0,0.72-0.24,1.56-0.72,2.29c-0.49,0.72-1.21,1.8-2.29,3.12c3.01-2.52,5.29-4.33,6.85-5.29c1.57-0.96,2.89-1.56,3.97-1.56
	c0.84,0,1.2,0.36,1.2,1.08c0,1.56-1.08,3.61-3.24,6.13l0.96-0.72c1.44-0.96,2.76-2.04,4.08-3c1.33-0.97,2.65-1.81,3.85-2.53
	c1.2-0.6,2.28-0.96,3.01-0.96c0.36,0,0.6,0.12,0.84,0.48c0.12,0.24,0.24,0.6,0.24,1.08c0,1.08-0.24,2.05-0.96,3.01
	c-0.6,0.96-1.81,2.04-3.37,3.24c-0.72,0.49-1.32,1.09-1.92,1.69s-0.84,1.08-0.84,1.32c0,0.36,0.24,0.6,0.84,0.6
	c0.96,0,2.28-0.6,3.84-1.8c1.57-1.08,3.97-3.01,7.1-5.65v0.48c-3.01,2.64-5.29,4.45-6.86,5.65c-1.56,1.2-3,1.68-4.2,1.68
	c-0.84,0-1.2-0.36-1.2-1.2c0-0.96,0.24-1.92,0.96-2.89c0.6-0.96,1.68-2.16,3.12-3.48c1.81-1.69,2.65-2.65,2.65-3.13
	c0-0.36-0.12-0.6-0.48-0.6c-0.61,0-1.81,0.6-3.73,1.8c-1.92,1.21-3.97,2.65-6.25,4.45c-2.28,1.81-4.21,3.37-5.65,4.81h-2.76
	l5.04-5.53c0.36-0.36,0.84-0.96,1.57-1.68c0.72-0.72,1.32-1.45,1.8-2.05c0.48-0.6,0.72-0.96,0.72-1.2c0-0.12,0-0.24-0.12-0.36
	s-0.24-0.12-0.48-0.12c-1.2,0-3.01,0.84-5.41,2.77c-2.4,1.92-5.29,4.32-8.53,7.21l-0.97,0.96h-2.76l6.85-7.69
	c1.56-1.69,2.41-2.65,2.41-2.89c0-0.36-0.12-0.48-0.37-0.48c-0.36,0-0.96,0.24-1.68,0.72c-0.72,0.48-1.56,1.08-2.4,1.68
	C418.03,134.8,417.19,135.52,416.23,136.36z"/>
<path d="M461.53,122.77l7.57-8.53h2.89l-21.15,23.31c-1.44,1.68-2.28,3.01-2.64,3.73c-0.36,0.84-0.24,1.32,0.36,1.32
	c1.68,0,3.48-0.6,5.29-1.8c1.8-1.08,3.24-2.41,4.44-3.97c1.21-1.44,1.93-2.65,1.93-3.61c0-1.2,0.24-1.8,0.96-1.8
	c0.24,0,0.36,0.12,0.36,0.48c0,1.44-0.84,3.13-2.77,5.41c1.21,0,2.05-0.12,2.65-0.36c0.6-0.24,1.32-0.96,2.28-1.92v0.48
	c-0.84,1.08-1.68,1.68-2.4,1.92c-0.6,0.24-1.56,0.36-2.89,0.24c-1.68,1.81-3.36,3.13-5.17,4.09c-1.68,0.84-3.24,1.2-4.68,1.2
	c-0.96,0-1.45-0.36-1.45-1.32c0-0.84,0.12-1.68,0.61-2.53c0.36-0.84,1.08-1.8,2.04-3.12c0.24-0.36,0.6-0.84,1.2-1.44
	c0.6-0.73,1.32-1.57,2.28-2.65c0.97-1.08,1.93-2.04,2.65-3.01c0.84-0.96,1.32-1.44,1.32-1.44l-10.33,8.9v-0.6l1.09-0.84
	c1.92-1.81,3.6-3.25,4.8-4.33c1.33-1.08,2.65-2.29,4.21-3.73c1.56-1.32,2.53-2.28,3.13-2.77
	C460.57,123.62,461.05,123.14,461.53,122.77z"/>
<path d="M462.97,135.76c0.96-0.72,1.92-1.57,2.89-2.29c0.96-0.84,1.92-1.56,2.88-2.28c-0.12-0.72-0.12-1.32,0.24-1.8
	c0.36-0.61,0.84-0.85,1.32-0.85c0.24,0,0.48,0.12,0.72,0.24s0.37,0.36,0.37,0.61c0,0.24-0.13,0.48-0.37,0.72
	c-0.12,0.12-0.36,0.24-0.6,0.24c-0.24,0-0.6-0.24-1.08-0.72c-0.12,0.24-0.24,0.48-0.24,0.72c0,0.36,0.12,0.6,0.36,0.84
	c0.24,0.12,0.48,0.24,0.72,0.24s0.48,0,0.96-0.12c0.37,0,0.61-0.12,0.73-0.12s0.36,0.24,0.48,0.48c0.12,0.36,0.12,0.72,0.12,1.2
	c0,0.36-0.24,0.84-0.72,1.57c-0.61,0.6-1.45,1.68-2.77,3.12c-1.32,1.44-2.28,2.53-2.76,3.13c-0.48,0.6-0.72,1.08-0.72,1.44
	c0,0.24,0.24,0.48,0.6,0.48c0.6,0,1.92-0.72,3.96-2.16c1.93-1.45,4.21-3.25,6.85-5.41v0.48c-5.77,5.05-9.49,7.45-11.05,7.45
	c-0.61,0-0.85-0.36-0.85-0.96c0-1.08,0.12-2.04,0.61-3.01c0.36-0.84,1.08-1.92,2.04-3l3.85-4.21c-0.49,0.12-0.97,0.24-1.57,0.24
	c-0.6,0-0.96-0.24-1.08-0.48c-2.88,2.4-4.81,3.97-5.89,4.81V135.76z"/>
<path d="M490.24,135.04v0.48c-2.53,2.52-4.69,4.33-6.73,5.65c-2.05,1.2-4.09,1.8-6.13,1.8c-1.81,0-2.77-0.96-2.77-3.12
	c0-1.69,0.72-3.25,2.04-4.57c1.21-1.33,2.77-2.29,4.57-3.01s3.25-1.08,4.33-1.08c0.6,0,1.08,0.12,1.44,0.48
	c0.36,0.24,0.6,0.6,0.6,1.08c0,0.84-0.36,1.44-1.2,2.05c-0.84,0.72-1.92,1.2-3.37,1.56c-1.44,0.36-3.12,0.72-5.04,0.72
	c-1.69,1.92-2.53,3.25-2.53,4.33c0,0.24,0.24,0.6,0.6,0.84c0.36,0.24,0.72,0.36,1.33,0.36C480.87,142.61,485.2,140.09,490.24,135.04
	z M478.59,136.48c1.8,0,3.36-0.24,4.56-0.72c1.33-0.48,2.17-0.96,2.89-1.57c0.6-0.72,0.96-1.2,0.96-1.56c0-0.6-0.36-0.96-1.08-0.96
	c-1.08,0-2.16,0.48-3.49,1.32C481.11,133.83,479.91,135.04,478.59,136.48z"/>
<path d="M280.7,462.88l0.72-1.32c-1.68,0.48-3.37,0.6-4.93,0.6c-2.04,0-3.61-0.24-5.05-0.96c-1.44-0.6-2.4-1.44-3.12-2.53
	c-0.72-1.08-1.08-2.4-1.08-3.72c0-2.05,0.84-3.97,2.52-5.9c1.56-1.92,3.97-3.48,6.85-4.56c3.01-1.21,6.37-1.69,10.22-1.69v0.36
	c-3.61,0-6.73,0.6-9.62,1.69c-2.88,1.08-5.05,2.52-6.73,4.33c-1.56,1.8-2.4,3.84-2.4,5.89c0,2.04,0.72,3.6,2.28,4.69
	c1.56,1.2,3.73,1.68,6.49,1.8c1.56,0.12,3.25-0.12,5.17-0.72c1.92-2.53,3.97-5.17,6.25-7.69c2.16-2.64,4.81-4.93,7.69-7.09
	c2.77-2.17,5.41-3.25,7.93-3.25c1.44,0,2.16,0.6,2.16,1.81c0,0.96-0.48,2.16-1.56,3.6c-0.96,1.45-2.41,2.89-4.33,4.45
	c-1.8,1.56-4.09,3.01-6.73,4.45c-2.65,1.44-5.41,2.53-8.42,3.49l-0.48,0.72c-1.8,2.4-3,3.97-3.6,4.81
	c-0.48,0.72-1.32,1.68-2.41,2.76c-1.08,1.09-2.28,2.05-3.72,3.13c-1.44,0.96-3.13,1.92-5.05,2.89c2.4,0.84,4.93,1.2,7.45,1.2
	c1.32,0,2.53-0.12,3.61-0.6c1.08-0.36,2.28-1.09,3.72-2.17c1.33-1.08,3.49-2.88,6.49-5.53v0.48c-2.04,1.93-3.72,3.37-5.04,4.45
	c-1.21,1.08-2.29,1.8-3.25,2.41c-0.96,0.48-1.8,0.84-2.64,1.08c-0.96,0.24-1.81,0.36-2.89,0.36c-2.28,0-4.93-0.48-8.05-1.44
	c-1.32,0.48-2.65,0.84-3.97,1.08c-1.2,0.24-2.52,0.36-4.08,0.36c-3.25,0-4.93-0.6-4.93-1.8c0-1.21,1.44-1.93,4.44-1.93
	c1.09,0,2.29,0.12,3.37,0.36c0.96,0.12,2.28,0.48,3.85,1.08l1.2,0.37c2.4-1.33,4.45-2.77,6.13-4.57
	C276.97,468.29,278.77,465.89,280.7,462.88z M268.21,474.9c-1.33-0.49-2.77-0.85-4.21-1.21c-1.44-0.24-2.64-0.36-3.61-0.36
	c-1.2,0-2.04,0.12-2.64,0.36c-0.6,0.36-0.96,0.72-0.96,1.09c0,0.96,1.44,1.32,4.33,1.32C263.64,476.1,266.04,475.74,268.21,474.9z
	 M285.27,460.12c3.12-1.09,6.01-2.41,8.53-3.85c2.64-1.56,4.69-3.01,6.37-4.45c1.68-1.56,2.88-2.89,3.85-4.09
	c0.84-1.32,1.32-2.28,1.32-2.88c0-0.48-0.12-0.85-0.48-1.21c-0.12-0.36-0.6-0.48-0.96-0.48c-2.29,0.12-4.57,1.09-6.98,3.01
	c-2.4,1.8-4.68,4.09-6.85,6.61C288.03,455.43,286.35,457.83,285.27,460.12z"/>
<path d="M303.65,467.8v0.48c-1.21,1.33-2.41,1.93-3.73,1.93c-0.12,0-0.24,0-0.48,0c-0.12,0-0.24-0.12-0.48-0.12
	c-3.13,3.24-5.77,4.93-8.18,4.93c-0.36,0-0.72-0.12-1.08-0.36c-0.36-0.25-0.72-0.49-0.84-0.85c-0.24-0.36-0.36-0.84-0.36-1.32
	c0-1.32,0.6-2.64,1.8-3.85c1.09-1.32,2.53-2.28,4.21-3.12c1.56-0.84,3.01-1.21,4.33-1.21c1.32,0,1.92,0.61,1.92,1.81
	c0,1.08-0.36,2.28-1.44,3.61c0.24,0,0.48,0.12,0.72,0.12C301.24,469.85,302.44,469.12,303.65,467.8z M298.96,464.68
	c-1.2,0-2.41,0.72-3.85,1.92c-1.44,1.2-2.76,2.64-3.84,4.09c-1.09,1.56-1.69,2.4-1.69,2.76c0,0.36,0.12,0.6,0.36,0.84
	c0.36,0.24,0.72,0.24,1.08,0.24c1.09,0,2.29-0.48,3.85-1.44c1.44-1.08,2.77-2.28,3.85-3.73c1.08-1.44,1.68-2.52,1.68-3.24
	c0-0.48-0.12-0.72-0.48-0.96C299.68,464.92,299.32,464.68,298.96,464.68z"/>
<path d="M302.92,469.01v-0.6c1.45-1.32,2.65-2.28,3.61-3c0.96-0.72,1.92-1.09,2.65-1.09c0.6,0,0.96,0.37,0.96,1.33
	c0,0.6-0.24,1.32-0.6,2.04c-0.49,0.6-1.21,1.56-2.17,2.77c2.77-2.17,4.81-3.85,6.25-4.69c1.32-0.96,2.53-1.45,3.61-1.45
	c0.72,0,1.08,0.37,1.08,0.97c0,1.32-0.96,3.24-3,5.53l0.84-0.6c1.32-0.97,2.64-1.93,3.84-2.77c1.21-0.84,2.29-1.56,3.37-2.16
	c1.2-0.6,2.04-0.97,2.76-0.97c0.24,0,0.48,0.13,0.72,0.37c0.12,0.24,0.24,0.6,0.24,1.08c0,0.96-0.24,1.8-0.84,2.64
	c-0.6,0.96-1.68,1.93-3.12,3.01c-0.6,0.36-1.08,0.84-1.68,1.44c-0.49,0.6-0.85,0.96-0.85,1.2c0,0.36,0.36,0.48,0.85,0.48
	c0.84,0,2.04-0.48,3.48-1.56c1.44-0.96,3.49-2.76,6.37-5.17v0.6c-2.64,2.29-4.69,3.97-6.13,5.05c-1.44,0.96-2.76,1.57-3.84,1.57
	c-0.73,0-1.09-0.36-1.09-1.21c0-0.84,0.24-1.68,0.84-2.52c0.61-0.84,1.57-1.93,2.89-3.25c1.56-1.44,2.4-2.4,2.4-2.76
	c0-0.36-0.24-0.6-0.48-0.6c-0.48,0-1.68,0.6-3.36,1.68c-1.69,1.08-3.61,2.4-5.65,4.09c-2.05,1.56-3.85,3-5.17,4.21h-2.52l4.68-4.93
	c0.24-0.37,0.72-0.85,1.33-1.57c0.72-0.6,1.2-1.2,1.68-1.8c0.48-0.48,0.72-0.84,0.72-1.08c0-0.12-0.12-0.24-0.12-0.36
	c-0.12-0.12-0.24-0.12-0.48-0.12c-1.08,0-2.77,0.84-4.93,2.52c-2.16,1.8-4.69,3.97-7.69,6.61l-0.84,0.73H301l6.25-6.86
	c1.44-1.56,2.05-2.4,2.05-2.64c0-0.24-0.12-0.48-0.37-0.48c-0.24,0-0.72,0.24-1.44,0.72c-0.72,0.36-1.44,0.96-2.16,1.56
	C304.49,467.57,303.77,468.29,302.92,469.01z"/>
<path d="M347.02,468.4l-1.56,1.21c-2.29,2.04-4.09,3.36-5.17,4.2c-1.21,0.72-2.17,1.21-3.01,1.21c-0.6,0-0.84-0.36-0.84-0.97
	c0-0.72,0.24-1.68,0.72-2.88c-2.76,2.52-4.81,3.85-6.25,3.85c-0.48,0-0.96-0.24-1.44-0.73c-0.36-0.48-0.48-1.08-0.48-2.04
	c0-0.96,0.24-1.92,0.84-2.89c0.6-0.96,1.44-1.92,2.4-2.64c0.97-0.72,2.05-1.32,3.37-1.8c1.2-0.36,2.4-0.61,3.48-0.61
	c0.61,0,1.09,0.13,1.33,0.37c0.24,0.12,0.36,0.48,0.36,0.96c0,0.12,0,0.24,0,0.24c0,0.12,0,0.24,0,0.36
	c-0.12,0.24-0.12,0.36-0.12,0.48l1.8-2.28l2.52-0.13l-0.72,0.97c-0.6,0.72-1.2,1.32-1.56,1.8c-0.36,0.48-0.72,0.84-0.96,1.2
	c-3.13,3.37-4.69,5.29-4.69,5.89c0,0.24,0.12,0.36,0.48,0.36c0.36,0,0.84-0.12,1.69-0.6c0.72-0.48,1.56-1.08,2.52-1.8
	c0.84-0.72,1.92-1.56,3.12-2.52c1.21-0.97,1.93-1.57,2.17-1.81V468.4z M339.22,464.68c-1.21,0-2.53,0.6-3.97,1.8
	c-1.44,1.2-2.65,2.52-3.73,3.97c-1.08,1.44-1.68,2.52-1.68,3.12c0,0.24,0.12,0.48,0.36,0.72c0.12,0.24,0.36,0.24,0.72,0.24
	c0.84,0,1.92-0.48,3.49-1.68c1.44-1.08,2.88-2.28,4.08-3.73c1.21-1.44,1.81-2.52,1.81-3.36
	C340.3,465.04,339.94,464.68,339.22,464.68z"/>
<path d="M346.3,468.53l6.13-5.41c0.48-0.48,0.84-1.08,1.32-1.56c0.36-0.48,0.6-0.72,0.84-0.72c0.12,0,0.24,0.12,0.36,0.12
	c0.12,0.12,0.24,0.24,0.24,0.48c0,0.36-0.48,0.84-1.56,1.32c0.6,0.96,0.96,1.81,1.32,2.53c0.24,0.72,0.48,1.56,0.48,2.64
	c0,0.72-0.12,1.2-0.24,1.69c0.72,0.24,1.32,0.24,1.92,0c0.61-0.25,1.45-0.85,2.41-1.81v0.48c-0.72,0.96-1.44,1.57-2.16,1.81
	c-0.73,0.24-1.45,0.24-2.29,0c-0.48,1.08-1.32,1.92-2.4,2.64c-0.96,0.84-2.17,1.32-3.25,1.68c-1.08,0.37-2.04,0.61-2.88,0.61
	c-0.72,0-1.32-0.12-1.93-0.49c-0.36-0.24-0.72-0.72-0.72-1.32c0-0.48,0.24-0.84,0.48-1.2c0.24-0.24,0.72-0.36,1.21-0.36
	c0.36,0,0.72,0,0.96,0.24c0.24,0.12,0.36,0.48,0.36,0.72c0,0.24-0.12,0.48-0.48,0.72c-0.12,0.24-0.48,0.24-0.72,0.24
	c-0.36,0-0.61-0.24-0.85-0.84c-0.24,0.12-0.36,0.36-0.36,0.72c0,0.24,0.12,0.48,0.6,0.72c0.37,0.24,0.85,0.36,1.45,0.36
	c0.96,0,2.04-0.36,3.24-1.32c1.2-0.84,2.17-2.04,2.89-3.36c0.84-1.33,1.2-2.65,1.2-3.85c0-0.96-0.24-1.93-0.84-2.89l-6.73,5.89
	V468.53z"/>
<path d="M378.38,467.21l15.86-18.27h2.52l-18.62,21.28c-0.48,0.48-0.84,0.96-1.32,1.56c-0.6,0.6-0.84,1.08-1.08,1.32
	c-0.24,0.36-0.48,0.72-0.48,1.08c-0.13,0.24,0,0.36,0.36,0.36c0.48,0,1.68-0.72,3.6-2.28c1.92-1.44,3.73-3.01,5.53-4.45v0.48
	c-2.4,2.05-4.33,3.61-5.89,4.81c-1.56,1.32-2.76,1.93-3.48,1.93c-0.49,0-0.73-0.36-0.73-0.97c0-0.72,0.24-1.8,0.73-3v-0.12
	c-2.77,2.64-4.93,4.09-6.49,4.09c-1.2,0-1.68-0.97-1.68-2.77c0-1.44,0.48-2.76,1.56-4.09c1.21-1.2,2.53-2.16,4.09-2.76
	c1.68-0.72,3.13-1.09,4.33-1.09c1.08,0,1.56,0.37,1.56,1.33C378.74,466.12,378.62,466.73,378.38,467.21z M377.06,464.68
	c-0.72,0-1.93,0.6-3.37,1.8c-1.56,1.08-2.88,2.4-4.08,3.85c-1.09,1.32-1.69,2.52-1.69,3.24s0.36,0.96,0.96,0.96
	c0.85,0,2.05-0.48,3.61-1.68c1.44-1.08,2.89-2.4,3.97-3.73c1.2-1.44,1.8-2.52,1.8-3.24S377.9,464.68,377.06,464.68z"/>
<path d="M396.64,467.8v0.48c-2.16,2.17-4.21,3.85-6.01,5.05c-1.92,1.08-3.73,1.69-5.53,1.69c-1.68,0-2.52-0.97-2.52-2.89
	c0-1.56,0.6-2.89,1.8-4.09c1.2-1.2,2.52-2.16,4.21-2.76c1.56-0.6,2.88-0.97,3.84-0.97c0.6,0,1.09,0.13,1.33,0.37
	c0.36,0.36,0.48,0.6,0.48,1.08c0,0.72-0.36,1.32-1.09,1.8c-0.72,0.6-1.68,1.08-3,1.44c-1.32,0.36-2.76,0.61-4.57,0.61
	c-1.44,1.68-2.28,3-2.28,3.84c0,0.36,0.24,0.6,0.48,0.84c0.36,0.24,0.72,0.24,1.32,0.24C388.24,474.53,392.08,472.37,396.64,467.8z
	 M386.19,469.12c1.57,0,3.01-0.24,4.09-0.72c1.2-0.36,2.04-0.84,2.52-1.44c0.61-0.6,0.97-0.96,0.97-1.32c0-0.6-0.36-0.96-1.09-0.96
	c-0.84,0-1.92,0.48-3,1.2C388.48,466.73,387.28,467.68,386.19,469.12z"/>
<path d="M414.43,450.5l1.56-1.57h2.29l-18.62,20.8c-2.29,2.4-3.37,3.84-3.37,4.32c0,0.36,0.24,0.48,0.6,0.48
	c0.72,0,1.44-0.24,2.41-0.84c0.84-0.6,2.04-1.56,3.48-2.88c1.56-1.32,2.65-2.29,3.37-3.01v0.6c-2.65,2.41-4.57,4.09-5.89,5.17
	c-1.21,0.96-2.29,1.45-3.37,1.45c-0.36,0-0.6-0.12-0.84-0.36c-0.24-0.37-0.48-0.61-0.48-0.97c0-0.96,0.6-2.16,1.56-3.48
	c0.96-1.33,2.29-2.89,3.97-4.69c0.12-0.24,0.48-0.6,1.08-1.33c0.6-0.6,1.08-1.32,1.68-2.04c-1.32,1.08-3.96,3.25-7.81,6.73v-0.48
	l8.29-7.21C405.42,460.36,408.78,456.75,414.43,450.5z"/>
<path d="M445.54,460.84l0.24,0.24c-1.44,1.08-2.52,1.92-3.24,2.64c-0.72,0.6-1.57,1.81-2.77,3.61c-1.32,1.8-2.52,3.37-3.6,4.69
	c-1.09,1.2-2.53,2.28-4.45,3.25c-1.8,0.84-4.09,1.32-6.73,1.32c-2.05,0-3.61-0.36-4.81-1.08c-1.08-0.72-1.68-1.81-1.68-3.01
	c0-0.6,0.12-1.2,0.48-1.56c0.36-0.48,0.72-0.6,1.2-0.6c0.36,0,0.6,0,0.84,0.24c0.24,0.12,0.36,0.48,0.36,0.72
	c0,0.24-0.12,0.48-0.36,0.72c-0.24,0.12-0.48,0.24-0.72,0.24c-0.36,0-0.72-0.36-1.08-0.96c-0.12,0.48-0.24,0.84-0.24,1.32
	c0,1.08,0.48,1.92,1.56,2.53c1.2,0.72,2.64,0.96,4.45,0.96c2.52,0,4.45-0.36,5.77-1.2c1.32-0.97,2.64-2.17,4.08-3.85
	c0.73-0.96,1.57-1.93,2.41-2.89c0.84-1.08,1.56-1.8,1.92-2.16c-1.44,0.96-2.88,1.68-4.33,2.28c-1.32,0.6-2.88,0.84-4.44,0.84
	c-1.45,0-2.65-0.36-3.61-1.2c-0.84-0.72-1.32-1.8-1.32-3.12c0-1.33,0.48-2.89,1.32-4.81h-0.24c-3.85,0-6.25-0.73-7.33-2.29
	c-1.08-1.44-1.68-2.88-1.68-4.33c0-1.32,0.48-2.64,1.32-3.96c0.96-1.33,2.16-2.41,3.6-3.49c1.57-0.96,3.37-1.8,5.41-2.29
	c2.05-0.6,4.09-0.84,6.37-0.84c1.21,0,2.41,0,3.49,0.12l-0.12,0.36c-1.08-0.12-2.16-0.12-3.25-0.12c-2.16,0-4.32,0.24-6.25,0.84
	c-1.92,0.61-3.72,1.33-5.17,2.29c-1.56,1.08-2.64,2.16-3.48,3.49c-0.84,1.32-1.32,2.64-1.32,3.96c0,1.81,0.48,3.01,1.56,3.97
	c1.08,0.84,2.16,1.32,3.36,1.56c1.21,0.25,2.53,0.37,3.97,0.37c0.36-0.49,0.72-1.09,1.32-1.81c0.48-0.72,1.09-1.44,1.81-2.16
	c0.6-0.6,1.32-1.32,2.04-2.05c0.72-0.6,1.56-1.32,2.76-2.16c2.53-1.92,4.81-3.37,6.62-4.57c1.92-1.2,3.84-2.16,5.89-3.01
	c1.92-0.72,3.84-1.08,5.76-1.08c1.69,0,2.53,0.48,2.53,1.69c0,1.32-0.72,2.76-2.4,4.32c-1.69,1.69-3.73,3.25-6.38,4.69
	c-2.64,1.45-5.4,2.65-8.53,3.85c-3.12,1.08-6.01,1.92-8.77,2.41c-1.09,1.56-1.81,2.88-2.17,3.84c-0.48,0.97-0.72,1.81-0.72,2.53
	s0.36,1.44,1.08,1.92c0.6,0.48,1.45,0.72,2.53,0.72c1.68,0,3.24-0.36,4.93-1.2c1.56-0.72,3.12-1.68,4.8-2.88
	C441.82,463.48,443.62,462.16,445.54,460.84z M429.93,459.27c3.48-0.6,7.21-1.68,11.29-3.48c3.97-1.69,7.34-3.61,10.1-5.65
	c2.77-2.17,4.09-3.97,4.09-5.53c0-0.97-0.72-1.45-2.17-1.45c-1.68,0-3.48,0.36-5.52,1.21c-2.05,0.84-4.09,2.04-6.13,3.6
	c-2.17,1.57-4.21,3.25-6.13,5.17C433.41,455.07,431.61,457.11,429.93,459.27z"/>
<path d="M443.74,469.01v-0.48c1.32-1.32,3.12-2.64,5.41-3.96h2.52l-6.61,7.45c-1.08,1.32-1.68,2.04-1.68,2.28
	c0,0.12,0.24,0.24,0.48,0.24c1.08,0,2.88-0.96,5.41-2.88c2.4-1.92,5.17-4.33,8.17-7.09h2.29l-6.86,7.81
	c-0.12,0.12-0.24,0.36-0.48,0.6c-0.24,0.24-0.48,0.48-0.6,0.72s-0.12,0.48-0.12,0.6c0,0.24,0.12,0.24,0.48,0.24
	c0.72,0,2.05-0.6,4.09-1.92c2.04-1.32,3.97-2.88,5.89-4.81v0.48c-2.04,1.93-3.97,3.49-5.89,4.81c-1.92,1.32-3.37,1.93-4.21,1.93
	c-0.72,0-1.08-0.36-1.08-1.09c0-0.6,0.36-1.44,0.96-2.4c0.6-0.96,1.45-2.29,2.77-3.73l0.48-0.72l-1.08,0.96
	c-2.29,2.17-4.33,3.85-6.13,5.05c-1.69,1.32-3.01,1.93-4.09,1.93c-0.72,0-1.08-0.49-1.08-1.33c0-0.48,0.24-1.08,0.48-1.8
	c0.36-0.6,0.84-1.32,1.32-2.04c0.6-0.73,1.08-1.33,1.8-2.05c0.6-0.72,1.21-1.44,1.81-2.04l-1.45,0.84
	C445.3,467.57,444.34,468.41,443.74,469.01z"/>
<path d="M461.41,468.89v-0.48c1.44-1.32,3.24-2.64,5.29-3.84h2.64l-6.97,7.81c-0.48,0.48-0.84,1.08-0.96,1.56
	c-0.12,0.48,0,0.6,0.36,0.6c0.96,0,2.4-0.72,4.33-2.16c2.04-1.44,3.84-2.88,5.41-4.57v0.48c-1.93,1.81-3.73,3.37-5.53,4.69
	c-1.69,1.32-3.13,2.05-4.33,2.05c-0.6,0-0.96-0.36-0.96-1.09c0-2.04,1.56-4.57,4.81-7.81c0.12-0.12,0.36-0.36,0.48-0.48
	c0.12-0.24,0.24-0.36,0.48-0.48C464.65,466.24,462.97,467.45,461.41,468.89z M471.62,458.31c0.48,0,0.72,0.24,0.72,0.84
	c0,0.25-0.12,0.49-0.36,0.73c-0.12,0.24-0.36,0.36-0.6,0.36c-0.61,0-0.85-0.24-0.85-0.72c0-0.25,0.12-0.61,0.36-0.85
	C471.13,458.43,471.38,458.31,471.62,458.31z"/>
<path d="M470.77,468.89v-0.48c1.45-1.32,2.53-2.16,3.37-2.76c0.84-0.48,1.68-0.84,2.64-1.08h2.65l-8.89,10.7
	c1.69-0.6,3.61-1.69,5.77-3.13c2.17-1.32,4.21-2.77,5.89-4.33v0.6c-3.84,3.25-7.93,5.77-12.26,7.7l-0.6,0.72
	c-3.72,4.33-6.37,7.45-8.17,9.26c-1.68,1.92-3.01,3.12-3.73,3.6c-0.72,0.61-1.56,0.85-2.16,0.85s-0.96-0.24-1.32-0.48
	c-0.24-0.37-0.48-0.85-0.48-1.33c0-1.68,1.44-3.72,4.2-5.89c1.08-0.96,2.53-1.92,4.33-3c1.68-1.09,3.61-2.17,5.77-3.25l8.89-11.66
	c-0.72,0.24-1.56,0.6-2.4,1.2C473.42,466.6,472.34,467.57,470.77,468.89z M462.25,484.03l2.64-3.48c0.73-0.84,1.45-1.93,2.29-3.25
	c-2.77,1.56-5.05,2.89-6.85,3.97c-1.69,1.2-3.25,2.4-4.45,3.73c-1.32,1.2-1.92,2.52-1.92,3.6c0,0.96,0.36,1.45,1.32,1.45
	C456.72,490.04,459.12,487.99,462.25,484.03z M481.83,458.43c0.48,0,0.72,0.24,0.72,0.72c0,0.25-0.12,0.49-0.24,0.73
	c-0.24,0.24-0.48,0.36-0.72,0.36c-0.24,0-0.36,0-0.6-0.24c-0.12-0.12-0.24-0.24-0.24-0.36c0-0.37,0.12-0.61,0.36-0.85
	C481.35,458.55,481.59,458.43,481.83,458.43z"/>
<path d="M497.93,468.4l-1.56,1.21c-2.29,2.04-4.09,3.36-5.17,4.2c-1.2,0.72-2.17,1.21-3.01,1.21c-0.6,0-0.84-0.36-0.84-0.97
	c0-0.72,0.24-1.68,0.72-2.88c-2.76,2.52-4.81,3.85-6.25,3.85c-0.48,0-0.96-0.24-1.44-0.73c-0.36-0.48-0.48-1.08-0.48-2.04
	c0-0.96,0.24-1.92,0.84-2.89c0.6-0.96,1.44-1.92,2.4-2.64c0.97-0.72,2.05-1.32,3.37-1.8c1.2-0.36,2.4-0.61,3.49-0.61
	c0.6,0,1.08,0.13,1.32,0.37c0.24,0.12,0.36,0.48,0.36,0.96c0,0.12,0,0.24,0,0.24c0,0.12,0,0.24,0,0.36
	c-0.12,0.24-0.12,0.36-0.12,0.48l1.8-2.28l2.53-0.13l-0.73,0.97c-0.6,0.72-1.2,1.32-1.56,1.8c-0.36,0.48-0.72,0.84-0.96,1.2
	c-3.12,3.37-4.69,5.29-4.69,5.89c0,0.24,0.12,0.36,0.48,0.36c0.36,0,0.84-0.12,1.69-0.6c0.72-0.48,1.56-1.08,2.52-1.8
	c0.84-0.72,1.92-1.56,3.13-2.52c1.2-0.97,1.92-1.57,2.16-1.81V468.4z M490.12,464.68c-1.21,0-2.53,0.6-3.97,1.8
	c-1.44,1.2-2.64,2.52-3.73,3.97c-1.08,1.44-1.68,2.52-1.68,3.12c0,0.24,0.12,0.48,0.36,0.72c0.12,0.24,0.48,0.24,0.72,0.24
	c0.84,0,1.93-0.48,3.49-1.68c1.44-1.08,2.88-2.28,4.09-3.73c1.2-1.44,1.8-2.52,1.8-3.36C491.2,465.04,490.84,464.68,490.12,464.68z"
	/>
<path d="M497.21,468.53c0.84-0.72,1.68-1.44,2.64-2.16c0.84-0.72,1.69-1.44,2.53-2.05c-0.12-0.6,0-1.2,0.24-1.68
	c0.36-0.48,0.72-0.72,1.2-0.72c0.24,0,0.48,0.12,0.72,0.24c0.12,0.12,0.24,0.24,0.24,0.48c0,0.24-0.12,0.48-0.24,0.6
	c-0.12,0.24-0.36,0.24-0.6,0.24c-0.24,0-0.6-0.12-0.96-0.6c-0.12,0.24-0.24,0.48-0.24,0.72s0.12,0.48,0.36,0.6
	c0.12,0.25,0.36,0.37,0.6,0.37s0.48,0,0.84-0.12c0.36-0.13,0.6-0.13,0.72-0.13s0.24,0.13,0.36,0.49c0.12,0.24,0.24,0.6,0.24,1.08
	c0,0.24-0.24,0.72-0.72,1.32c-0.48,0.6-1.32,1.56-2.52,2.89c-1.2,1.32-2.05,2.28-2.53,2.76c-0.36,0.6-0.6,0.96-0.6,1.32
	c0,0.24,0.12,0.36,0.6,0.36c0.48,0,1.69-0.6,3.49-1.92c1.8-1.2,3.85-2.88,6.25-4.81v0.48c-5.29,4.45-8.65,6.73-9.98,6.73
	c-0.6,0-0.84-0.36-0.84-0.97c0-0.96,0.24-1.8,0.6-2.64c0.36-0.84,0.96-1.8,1.81-2.77l3.48-3.84c-0.36,0.24-0.84,0.24-1.44,0.24
	c-0.48,0-0.84-0.12-0.96-0.48c-2.53,2.16-4.33,3.6-5.29,4.44V468.53z"/>
<path d="M509.11,468.53c0.96-0.72,1.8-1.44,2.64-2.16c0.96-0.72,1.81-1.44,2.65-2.05c-0.12-0.6-0.12-1.2,0.24-1.68
	c0.36-0.48,0.72-0.72,1.2-0.72c0.24,0,0.48,0.12,0.6,0.24c0.24,0.12,0.36,0.24,0.36,0.48c0,0.24-0.12,0.48-0.24,0.6
	c-0.24,0.24-0.36,0.24-0.6,0.24s-0.6-0.12-1.08-0.6c0,0.24-0.12,0.48-0.12,0.72s0.12,0.48,0.24,0.6c0.24,0.25,0.48,0.37,0.72,0.37
	s0.48,0,0.84-0.12c0.36-0.13,0.6-0.13,0.72-0.13s0.24,0.13,0.36,0.49c0.12,0.24,0.12,0.6,0.12,1.08c0,0.24-0.24,0.72-0.72,1.32
	c-0.48,0.6-1.32,1.56-2.4,2.89c-1.2,1.32-2.05,2.28-2.53,2.76c-0.48,0.6-0.6,0.96-0.6,1.32c0,0.24,0.12,0.36,0.48,0.36
	c0.6,0,1.81-0.6,3.61-1.92c1.8-1.2,3.85-2.88,6.25-4.81v0.48c-5.29,4.45-8.66,6.73-10.1,6.73c-0.48,0-0.72-0.36-0.72-0.97
	c0-0.96,0.12-1.8,0.48-2.64c0.36-0.84,1.08-1.8,1.93-2.77l3.48-3.84c-0.48,0.24-0.96,0.24-1.44,0.24c-0.48,0-0.84-0.12-0.96-0.48
	c-2.65,2.16-4.45,3.6-5.41,4.44V468.53z"/>
<path d="M534.46,467.8v0.48c-1.21,1.33-2.41,1.93-3.73,1.93c-0.12,0-0.24,0-0.48,0c-0.12,0-0.24-0.12-0.48-0.12
	c-3.13,3.24-5.77,4.93-8.18,4.93c-0.36,0-0.72-0.12-1.08-0.36c-0.36-0.25-0.72-0.49-0.84-0.85c-0.24-0.36-0.36-0.84-0.36-1.32
	c0-1.32,0.6-2.64,1.8-3.85c1.09-1.32,2.53-2.28,4.21-3.12c1.56-0.84,3.01-1.21,4.33-1.21c1.32,0,1.92,0.61,1.92,1.81
	c0,1.08-0.36,2.28-1.44,3.61c0.24,0,0.48,0.12,0.72,0.12C532.05,469.85,533.25,469.12,534.46,467.8z M529.77,464.68
	c-1.2,0-2.41,0.72-3.85,1.92c-1.44,1.2-2.76,2.64-3.84,4.09c-1.09,1.56-1.69,2.4-1.69,2.76c0,0.36,0.12,0.6,0.36,0.84
	c0.36,0.24,0.72,0.24,1.08,0.24c1.09,0,2.29-0.48,3.85-1.44c1.44-1.08,2.77-2.28,3.85-3.73c1.08-1.44,1.68-2.52,1.68-3.24
	c0-0.48-0.12-0.72-0.48-0.96C530.49,464.92,530.13,464.68,529.77,464.68z"/>
</svg>
